# AST/ASF file generated using VICON BodyLanguage
# -----------------------------------------------
:version 1.10
:name VICON
:units
  mass 1.0
  length 0.45
  angle deg
:documentation
   .ast/.asf automatically generated from VICON data using
   VICON BodyBuilder and BodyLanguage model FoxedUp or BRILLIANT.MOD
:root
   order TX TY TZ RX RY RZ
   axis XYZ
   position 0 0 0  
   orientation 0 0 0 
:bonedata
  begin
     id 1 
     name lhipjoint
     direction 0.578396 -0.714046 0.394458 
     length 2.21935 
     axis 0 0 0  XYZ
  end
  begin
     id 2 
     name lfemur
     direction 0.34202 -0.939693 0  
     length 6.39105  
     axis 0 0 20  XYZ
    dof rx ry rz
    limits (-160.0 20.0)
           (-70.0 70.0)
           (-60.0 70.0)
  end
  begin
     id 3 
     name ltibia
     direction 0.34202 -0.939693 0   
     length 6.99037   
     axis 0 0 20   XYZ
    dof rx
    limits (-10.0 170.0)
  end
  begin
     id 4 
     name lfoot
     direction 0.0582372 -0.160005 0.985397   
     length 2.06111   
     axis -90 7.62852e-016 20   XYZ
    dof rx rz
    limits (-45.0 90.0)
           (-70.0 20.0)
  end
  begin
     id 5 
     name ltoes
     direction 1.53556e-011 -4.21875e-011 1   
     length 1.04074   
     axis -90 7.62852e-016 20   XYZ
    dof rx
    limits (-90.0 20.0)
  end
  begin
     id 6 
     name rhipjoint
     direction -0.558179 -0.726269 0.40121   
     length 2.182  
     axis 0 0 0  XYZ 
  end
  begin
     id 7 
     name rfemur
     direction -0.34202 -0.939693 0   
     length 6.51172   
     axis 0 0 -20   XYZ
    dof rx ry rz
    limits (-160.0 20.0)
           (-70.0 70.0)
           (-70.0 60.0)
  end
  begin
     id 8 
     name rtibia
     direction -0.34202 -0.939693 0   
     length 7.02607   
     axis 0 0 -20   XYZ
    dof rx
    limits (-10.0 170.0)
 end
 begin
     id 9 
     name rfoot
     direction -0.0788856 -0.216737 0.973038   
     length 1.96734  
     axis -90 -7.62852e-016 -20   XYZ
    dof rx rz
    limits (-45.0 90.0)
           (-20.0 70.0)
  end
  begin
     id 10 
     name rtoes
     direction -1.53567e-011 -4.21783e-011 1   
     length 0.990825   
     axis -90 -7.62852e-016 -20   XYZ
    dof rx
    limits (-90.0 20.0)
  end
  begin
     id 11 
     name lowerback
     direction 0.00668177 0.999323 -0.0361741   
     length 1.7655   
     axis 0 0 0   XYZ
    dof rx ry rz
    limits (-20.0 45.0)
           (-30.0 30.0)
           (-30.0 30.0)
  end
  begin
     id 12 
     name upperback
     direction -0.00222086 0.99851 0.0545167   
     length 1.74912   
     axis 0 0 0   XYZ
    dof rx ry rz
    limits (-20.0 45.0)
           (-30.0 30.0)
           (-30.0 30.0)
  end
  begin
     id 13 
     name thorax
     direction -0.00733971 0.997496 0.0703443   
     length 1.75715   
     axis 0 0 0   XYZ
    dof rx ry rz
    limits (-20.0 45.0)
           (-30.0 30.0)
           (-30.0 30.0)
  end
  begin
     id 14 
     name lowerneck
     direction 0.0279797 0.994795 0.0979765   
     length 1.46939   
     axis 0 0 0   XYZ
    dof rx ry rz
    limits (-20.0 45.0)
           (-30.0 30.0)
           (-30.0 30.0)
  end
  begin
     id 15 
     name upperneck
     direction 0.00339187 0.976776 -0.214238   
     length 1.48018   
     axis 0 0 0   XYZ
    dof rx ry rz
    limits (-20.0 45.0)
           (-30.0 30.0)
           (-30.0 30.0)
  end
  begin
     id 16
     name head
     direction -0.00263506 0.996603 -0.0823096  
     length 1.4976  
     axis 0 0 0   XYZ
    dof rx ry rz
    limits (-20.0 45.0)
           (-30.0 30.0)
           (-30.0 30.0)
  end
  begin
     id 17 
     name lclavicle
     direction 0.894044 0.44508 -0.0508781  
     length 3.03024  
     axis 0 0 0   XYZ
    dof ry rz
    limits (-20.0 10.0)
           (0.0 20.0)
  end
  begin
     id 18 
     name lhumerus
     direction 1 -4.48961e-011 -2.39475e-018   
     length 4.4661   
     axis 180 -30 -90   XYZ
    dof rx ry rz
    limits (-60.0 90.0)
           (-90.0 90.0)
           (-90.0 90.0)
  end
  begin
     id 19
     name lradius
     direction 1 -4.48961e-011 9.29328e-028   
     length 3.41414   
     axis 180 -30 -90   XYZ
    dof rx
    limits (-10.0 170.0)
  end
  begin
     id 20
     name lwrist
     direction 1 -4.48985e-011 1.53461e-026   
     length 1.70707   
     axis -1.09697e-014 90 90   XYZ
    dof ry
    limits (-180.0 0.0)
 end
  begin
     id 21 
     name lhand
     direction 1 -4.48966e-011 3.06923e-026   
     length 0.328298   
     axis -1.95843e-014 90 90   XYZ
    dof rx rz
    limits (-90.0 90.0)
           (-45.0 45.0)
  end
  begin
     id 22 
     name lfingers
     direction 1 -4.48893e-011 6.13845e-026   
     length 0.264682   
     axis -3.91686e-014 90 90   XYZ
    dof rx
    limits (0.0 90.0)
  end
  begin
     id 23
     name lthumb
     direction 0.707107 -6.34876e-011 0.707107   
     length 0.380032   
     axis -90 45 2.85299e-015   XYZ
    dof rx rz
    limits (-45.0 45.0)
           (-45.0 45.0)
  end
  begin
     id 24 
     name rclavicle
     direction -0.936955 0.347862 -0.0332887   
     length 3.26927  
     axis 0 0 0   XYZ 
    dof ry rz
    limits (-10.0 20.0)
           (-20.0 0.0)
  end
  begin
     id 25 
     name rhumerus
     direction -1 -4.4896e-011 1.78637e-018  
     length 4.40431   
     axis 180 30 90   XYZ
    dof rx ry rz
    limits (-90.0 60.0)
           (-90.0 90.0)
           (-90.0 90.0)
  end
  begin
     id 26 
     name rradius
     direction -1 -4.48955e-011 9.34036e-027   
     length 3.04688   
     axis 180 30 90   XYZ
    dof rx
    limits (-10.0 170.0)
  end
  begin
     id 27 
     name rwrist
     direction -1 -4.49011e-011 1.53461e-026   
     length 1.52344   
     axis -1.09697e-014 -90 -90   XYZ
    dof ry
    limits (-180.0 0.0)
  end
  begin
     id 28
     name rhand
     direction -1 -4.48834e-011 3.06923e-026   
     length 0.500489   
     axis -1.95843e-014 -90 -90   XYZ
    dof rx rz
    limits (-90.0 90.0)
           (-45.0 45.0)
  end
  begin
     id 29
     name rfingers
     direction -1 -4.48967e-011 6.13845e-026   
     length 0.403507   
     axis -3.91686e-014 -90 -90   XYZ
    dof rx
    limits (0.0 90.0)
  end
  begin
     id 30
     name rthumb
     direction -0.707107 -6.34826e-011 0.707107   
     length 0.579358   
     axis -90 -45 -2.85299e-015   XYZ
    dof rx rz
    limits (-45.0 45.0)
           (-45.0 45.0)
  end
:hierarchy
  begin
    root lhipjoint rhipjoint lowerback
    lhipjoint lfemur
    lfemur ltibia
    ltibia lfoot
    lfoot ltoes
    rhipjoint rfemur
    rfemur rtibia
    rtibia rfoot
    rfoot rtoes
    lowerback upperback
    upperback thorax
    thorax lowerneck lclavicle rclavicle
    lowerneck upperneck
    upperneck head
    lclavicle lhumerus
    lhumerus lradius
    lradius lwrist
    lwrist lhand lthumb
    lhand lfingers
    rclavicle rhumerus
    rhumerus rradius
    rradius rwrist
    rwrist rhand rthumb
    rhand rfingers
  end

#!OML:ASF H:\IndianDance\Patient Classification 1\Patient 1\Session 1\dancer.ASF
:FULLY-SPECIFIED
:DEGREES
1012
root -0.193915 15.3641 12.1181 -173.735 -14.9746 -175.548
lowerback 6.44301 2.33088 0.97455
upperback -7.23496 2.89724 -0.923959
thorax -11.2841 1.14862 -1.98197
lowerneck -14.8555 11.2078 8.84329
upperneck 17.4661 11.9262 5.09726
head 8.11293 6.63228 1.65839
rclavicle -2.55438e-014 2.14687e-014
rhumerus -40.4364 55.8282 -65.2083
rradius 103.024
rwrist 12.2018
rhand -48.5099 54.7814
rfingers 7.12502
rthumb -21.1583 385.916
lclavicle -2.55438e-014 2.14687e-014
lhumerus 22.1141 -11.6027 32.1262
lradius 92.603
lwrist 42.9066
lhand -33.4416 17.7363
lfingers 7.12502
lthumb -6.6405 -312.388
rfemur -371.958 -15.6091 381.029
rtibia 36.5291
rfoot -17.4998 -12.7135
rtoes -14.0752
lfemur 133.335 152.756 168.759
ltibia 63.5221
lfoot 13.363 -14.3053
ltoes 19.8174
1013
root -0.0872888 15.363 12.1483 -173.976 -16.1674 -174.874
lowerback 6.74037 2.18626 1.18593
upperback -7.30912 2.75743 -0.684827
thorax -11.5571 1.07128 -1.83634
lowerneck -14.7968 11.1952 8.77419
upperneck 17.2454 11.9132 5.24703
head 8.01392 6.63233 1.70108
rclavicle -7.90169e-015 -3.97569e-015
rhumerus -41.0859 55.6024 -64.7879
rradius 103.067
rwrist 11.7855
rhand -48.5291 54.9003
rfingers 7.12502
rthumb -21.1767 386.037
lclavicle -7.90169e-015 -3.97569e-015
lhumerus 23.846 -9.08495 33.4246
lradius 90.1446
lwrist 46.9464
lhand -29.2668 20.8168
lfingers 7.12502
lthumb -2.60942 -309.219
rfemur -371.572 -16.6676 382.324
rtibia 35.6143
rfoot -17.742 -13.1057
rtoes -13.093
lfemur 129.985 151.116 168.394
ltibia 67.6545
lfoot 15.2469 -13.2868
ltoes 20.6619
1014
root 0.0151502 15.3578 12.1797 -174.304 -17.2366 -174.165
lowerback 7.10944 2.0639 1.39913
upperback -7.37771 2.65603 -0.409329
thorax -11.8693 1.01362 -1.65916
lowerneck -14.6818 11.1782 8.7146
upperneck 17.0066 11.9057 5.3688
head 7.90175 6.63196 1.72972
rclavicle -2.5196e-014 -1.59028e-014
rhumerus -41.6646 55.4129 -64.3228
rradius 103.065
rwrist 11.3141
rhand -48.5751 54.9924
rfingers 7.12502
rthumb -21.2209 386.134
lclavicle -2.5196e-014 -1.59028e-014
lhumerus 25.5946 -6.68252 34.9482
lradius 87.5208
lwrist 51.2931
lhand -25.2574 23.3683
lfingers 7.12502
lthumb 1.26297 -306.656
rfemur -371.258 -17.6541 383.599
rtibia 34.879
rfoot -17.9724 -13.4425
rtoes -12.0649
lfemur 126.679 149.641 168.089
ltibia 72.0867
lfoot 16.5817 -12.3228
ltoes 20.8798
1015
root 0.112955 15.349 12.2122 -174.72 -18.1526 -173.443
lowerback 7.54125 1.97011 1.60869
upperback -7.4293 2.59985 -0.11878
thorax -12.2013 0.978928 -1.47086
lowerneck -14.5253 11.1597 8.69074
upperneck 16.7553 11.8997 5.45844
head 7.78319 6.63041 1.74019
rclavicle 4.32357e-015 -3.18055e-015
rhumerus -42.134 55.2218 -63.8322
rradius 102.984
rwrist 10.8342
rhand -48.6147 55.033
rfingers 7.12502
rthumb -21.259 386.179
lclavicle 4.32357e-015 -3.18055e-015
lhumerus 27.3625 -4.38832 36.6874
lradius 84.7694
lwrist 55.8355
lhand -21.6267 25.646
lfingers 7.12502
lthumb 4.76919 -304.428
rfemur -370.992 -18.506 384.816
rtibia 34.3192
rfoot -18.1825 -13.7233
rtoes -11.114
lfemur 123.493 148.274 167.869
ltibia 76.7631
lfoot 17.3443 -11.6431
ltoes 20.3614
1016
root 0.205677 15.3377 12.2456 -175.21 -18.894 -172.74
lowerback 8.03451 1.90249 1.79513
upperback -7.46163 2.58232 0.175485
thorax -12.5507 0.965155 -1.27199
lowerneck -14.3574 11.1528 8.6985
upperneck 16.5237 11.9042 5.53619
head 7.67277 6.6343 1.74392
rclavicle -5.77966e-014 -1.59028e-014
rhumerus -42.4641 55.0287 -63.33
rradius 102.816
rwrist 10.3895
rhand -48.6568 55.0544
rfingers 7.12502
rthumb -21.2994 386.205
lclavicle -5.77966e-014 -1.59028e-014
lhumerus 29.116 -2.18743 38.6106
lradius 81.9405
lwrist 60.3513
lhand -18.5816 27.8384
lfingers 7.12502
lthumb 7.70898 -302.322
rfemur -370.759 -19.1943 385.936
rtibia 33.9332
rfoot -18.3662 -13.9393
rtoes -10.2991
lfemur 120.477 146.944 167.734
ltibia 81.6295
lfoot 17.5588 -11.4184
ltoes 19.1585
1017
root 0.293162 15.3242 12.2798 -175.751 -19.449 -172.094
lowerback 8.56922 1.86321 1.93948
upperback -7.46782 2.60123 0.452101
thorax -12.8972 0.972416 -1.07466
lowerneck -14.2098 11.1609 8.738
upperneck 16.3314 11.9161 5.61624
head 7.58149 6.64396 1.74783
rclavicle -4.82053e-015 -8.74653e-015
rhumerus -42.6285 54.7972 -62.8325
rradius 102.533
rwrist 10.0378
rhand -48.6646 55.043
rfingers 7.12502
rthumb -21.3069 386.194
lclavicle -4.82053e-015 -8.74653e-015
lhumerus 30.8548 -0.083955 40.682
lradius 79.0677
lwrist 64.4956
lhand -16.2102 29.9928
lfingers 7.12502
lthumb 9.99733 -300.265
rfemur -370.552 -19.7204 386.916
rtibia 33.7229
rfoot -18.5281 -14.0702
rtoes -9.63011
lfemur 117.643 145.559 167.639
ltibia 86.6289
lfoot 17.2715 -11.7245
ltoes 17.3099
1018
root 0.375266 15.3097 12.3146 -176.31 -19.8192 -171.544
lowerback 9.12662 1.84811 2.02069
upperback -7.44763 2.64474 0.695027
thorax -13.2291 0.99645 -0.88269
lowerneck -14.1054 11.1871 8.79988
upperneck 16.1913 11.934 5.7195
head 7.51554 6.6604 1.76162
rclavicle 6.94255e-014 2.62396e-014
rhumerus -42.6303 54.5175 -62.3655
rradius 102.148
rwrist 9.80873
rhand -48.6435 54.9471
rfingers 7.12502
rthumb -21.2866 386.096
lclavicle 6.94255e-014 2.62396e-014
lhumerus 32.5584 1.91747 42.8507
lradius 76.184
lwrist 67.9177
lhand -14.4979 32.0206
lfingers 7.12502
lthumb 11.649 -298.323
rfemur -370.376 -20.107 387.725
rtibia 33.6833
rfoot -18.6677 -14.1198
rtoes -9.17686
lfemur 114.986 144.041 167.527
ltibia 91.702
lfoot 16.5389 -12.5771
ltoes 14.7277
